HIERARCHY
ROOT root
{
	OFFSET 0.000000 0.000000 0.000000
	CHANNELS 6 Xposition Yposition Zposition Zrotation Yrotation Xrotation
	JOINT lhip
	{
		OFFSET 0.058581 -0.082280 -0.017664
		CHANNELS 3 Zrotation Yrotation Xrotation
		JOINT lknee
		{
			OFFSET 0.043451 -0.386469 0.008037
			CHANNELS 3 Zrotation Yrotation Xrotation
			JOINT lankle
			{
				OFFSET -0.014790 -0.426874 -0.037428
				CHANNELS 3 Zrotation Yrotation Xrotation
				JOINT ltoe
				{
					OFFSET 0.041054 -0.060286 0.122042
					CHANNELS 3 Zrotation Yrotation Xrotation
					End Site
					{
						OFFSET 0.000000 0.000000 0.000000
					}
				}
			}
		}
	}
	JOINT rhip
	{
		OFFSET -0.060310 -0.090513 -0.013543
		CHANNELS 3 Zrotation Yrotation Xrotation
		JOINT rknee
		{
			OFFSET -0.043257 -0.383688 -0.004843
			CHANNELS 3 Zrotation Yrotation Xrotation
			JOINT rankle
			{
				OFFSET 0.019056 -0.420046 -0.034562
				CHANNELS 3 Zrotation Yrotation Xrotation
				JOINT rtoe
				{
					OFFSET -0.034840 -0.062106 0.130323
					CHANNELS 3 Zrotation Yrotation Xrotation
					End Site
					{
						OFFSET 0.000000 0.000000 0.000000
					}
				}
			}
		}
	}
	JOINT lowerback
	{
		OFFSET 0.004439 0.124404 -0.038385
		CHANNELS 3 Zrotation Yrotation Xrotation
		JOINT upperback
		{
			OFFSET 0.004488 0.137956 0.026820
			CHANNELS 3 Zrotation Yrotation Xrotation
			JOINT chest
			{
				OFFSET -0.002265 0.056032 0.002855
				CHANNELS 3 Zrotation Yrotation Xrotation
				JOINT lowerneck
				{
					OFFSET -0.013390 0.211636 -0.033468
					CHANNELS 3 Zrotation Yrotation Xrotation
					JOINT upperneck
					{
						OFFSET 0.010113 0.088937 0.050410
						CHANNELS 3 Zrotation Yrotation Xrotation
						End Site
						{
							OFFSET 0.000000 0.000000 0.000000
						}
					}
				}
				JOINT lclavicle
				{
					OFFSET 0.071702 0.114000 -0.018898
					CHANNELS 3 Zrotation Yrotation Xrotation
					JOINT lshoulder
					{
						OFFSET 0.122921 0.045205 -0.019046
						CHANNELS 3 Zrotation Yrotation Xrotation
						JOINT lelbow
						{
							OFFSET 0.255332 -0.015649 -0.022946
							CHANNELS 3 Zrotation Yrotation Xrotation
							JOINT lwrist
							{
								OFFSET 0.265709 0.012698 -0.007375
								CHANNELS 3 Zrotation Yrotation Xrotation
								End Site
								{
									OFFSET 0.000000 0.000000 0.000000
								}
							}
						}
					}
				}
				JOINT rclavicle
				{
					OFFSET -0.082954 0.112472 -0.023707
					CHANNELS 3 Zrotation Yrotation Xrotation
					JOINT rshoulder
					{
						OFFSET -0.113228 0.046853 -0.008472
						CHANNELS 3 Zrotation Yrotation Xrotation
						JOINT relbow
						{
							OFFSET -0.260127 -0.014369 -0.031269
							CHANNELS 3 Zrotation Yrotation Xrotation
							JOINT rwrist
							{
								OFFSET -0.269108 0.006794 -0.006027
								CHANNELS 3 Zrotation Yrotation Xrotation
								End Site
								{
									OFFSET 0.000000 0.000000 0.000000
								}
							}
						}
					}
				}
			}
		}
	}
}
MOTION
Frames: 7
Frame Time: 0.033333
-0.157738 0.001445 0.975949 -6.057680 0.883672 80.826096 10.885828 3.031656 8.935037 -6.109569 1.005913 3.903254 1.669937 15.110869 -17.444820 0.000000 -0.000000 0.000000 -13.141777 -6.428435 -4.046712 -3.745973 -6.452912 23.422316 5.334299 -16.276117 -13.931731 0.000000 -0.000000 0.000000 -2.476555 -0.152941 -2.426130 2.189510 -2.026578 3.350137 -3.013040 -2.638830 3.269297 2.711093 6.554629 5.176367 -7.159740 -4.162037 42.924142 -20.128442 -2.108082 -5.227540 -51.005414 -31.076397 20.042843 -1.842311 -45.221738 15.965640 -4.759107 -11.750142 -14.308373 30.999010 -1.299599 -5.877001 48.917127 9.791956 21.975574 -8.705213 28.731435 1.979937 19.608309 5.698474 -4.618443 
-0.159533 0.004479 0.976078 -6.214887 0.782372 81.011348 10.841197 3.086981 8.901990 -6.067970 0.967884 3.283866 1.761050 15.204420 -17.044518 0.000000 -0.000000 0.000000 -13.232703 -6.192193 -4.379730 -3.310078 -6.441145 23.327100 5.243829 -16.216545 -14.250463 0.000000 -0.000000 0.000000 -2.499755 -0.104292 -2.543261 2.035209 -1.843175 4.010913 -3.186180 -2.516472 3.640163 2.730761 6.439056 5.874054 -7.304783 -4.227743 43.284623 -20.485048 -1.849251 -5.260457 -50.770350 -30.771207 19.700053 -1.937172 -43.758952 15.821001 -4.681650 -11.493941 -13.892406 31.021580 -1.240640 -5.791201 48.744092 10.493934 21.869164 -8.945521 29.609108 1.332404 18.277468 6.080689 -5.111693 
-0.162039 0.008349 0.975970 -6.237269 0.703551 81.297899 10.956000 3.164631 8.416190 -6.126183 0.941866 3.155823 1.695872 15.153297 -16.717990 0.000000 -0.000000 0.000000 -13.315285 -6.080866 -4.859512 -2.872444 -6.588149 23.339720 5.232753 -16.176621 -14.614123 0.000000 -0.000000 0.000000 -2.411875 -0.083669 -1.856133 1.893393 -1.726935 3.811707 -3.300030 -2.469127 3.799721 2.891614 6.141318 6.115067 -7.410643 -4.630428 43.438000 -20.704148 -1.343081 -5.218235 -50.745934 -30.034693 19.293631 -2.156497 -42.075381 15.928888 -5.108001 -11.499780 -13.673552 30.830308 -1.307830 -5.852755 48.700342 10.823268 21.722858 -9.082162 30.339808 0.734130 17.078747 6.404084 -5.643275 
-0.165208 0.012253 0.975903 -6.244581 0.663330 81.507073 11.124654 3.305944 7.906152 -6.115381 0.916292 3.275288 1.608761 15.081113 -16.500706 0.000000 -0.000000 0.000000 -13.285311 -6.153191 -5.314760 -2.557096 -6.652038 23.470185 5.250337 -16.157777 -15.085258 0.000000 -0.000000 0.000000 -2.196057 -0.011191 -0.835733 1.773970 -1.677908 3.391225 -3.326956 -2.468028 3.918797 3.088470 5.653773 5.970991 -7.408593 -5.197382 43.311416 -20.895647 -0.909169 -5.103459 -50.896217 -29.023059 18.823273 -2.191658 -39.961426 15.445279 -5.027714 -11.317485 -13.535454 30.591522 -1.250361 -5.947102 48.549368 10.941314 21.511853 -9.093536 30.822883 0.156779 15.813536 6.600714 -6.030059 
-0.169242 0.015562 0.975933 -6.383041 0.583546 81.641353 11.231090 3.533099 7.684983 -5.994118 0.762131 3.259968 1.595295 15.171601 -16.402579 0.000000 -0.000000 0.000000 -13.109681 -6.317987 -5.769419 -2.406554 -6.470850 23.720629 5.143952 -16.092539 -15.568606 0.000000 -0.000000 0.000000 -2.056421 0.128516 -0.228947 1.761975 -1.648559 3.570998 -3.251444 -2.493801 4.034575 3.289679 5.004394 5.763844 -7.287000 -5.847194 42.826617 -21.360685 -0.808049 -4.904622 -50.453564 -27.837678 18.268602 -2.393544 -37.613061 14.919361 -4.767298 -10.928762 -12.796433 30.644406 -0.928907 -5.991470 47.959149 11.095779 21.101491 -8.984369 30.940059 -0.285887 15.080928 6.671522 -5.988952 
-0.173716 0.018165 0.976113 -6.471340 0.500117 81.881974 11.293653 3.631625 7.430165 -5.814937 0.589099 3.161104 1.501701 15.292001 -16.297522 0.000000 -0.000000 0.000000 -12.902379 -6.298718 -6.185749 -2.218565 -6.394568 23.813125 5.007421 -16.187023 -15.958918 0.000000 -0.000000 0.000000 -1.911201 0.188243 0.041137 1.810615 -1.675594 3.911529 -3.170397 -2.589828 4.102931 3.660568 4.255637 5.672213 -7.119200 -6.554459 42.423512 -21.916406 -0.707836 -4.499668 -49.780326 -26.509482 17.684707 -2.553094 -35.205572 14.781890 -4.853264 -10.783374 -11.364432 30.745498 -0.604010 -5.989090 47.374890 11.299005 20.658006 -8.697905 30.489640 -0.295198 14.696683 6.724217 -5.775566 
-0.178252 0.019727 0.976409 -6.443838 0.458358 82.199500 11.418210 3.755002 7.169435 -5.645038 0.413449 2.972327 1.364207 15.275156 -16.180349 0.000000 -0.000000 0.000000 -12.742407 -6.179919 -6.420722 -1.918329 -6.535785 23.675695 4.893774 -16.347228 -16.362909 0.000000 -0.000000 0.000000 -1.694599 0.074814 0.335871 1.922062 -1.763034 3.847924 -3.106895 -2.711301 4.100643 4.284799 3.480376 5.835816 -7.027732 -7.234196 42.437266 -22.529753 -0.202758 -4.042621 -49.277254 -24.985991 17.073405 -2.699543 -32.598451 15.133431 -5.489661 -10.902999 -9.312774 30.783128 -0.544222 -6.013040 46.964959 11.428699 20.201033 -8.271997 29.445569 -0.068626 14.609457 6.738829 -5.438087 
